<svg xmlns="http://www.w3.org/2000/svg" viewBox="0 0 24 30" x="0px" y="0px"><path d="M14.87,4.96l-1.2127.6063a1.8808,1.8808,0,0,0-.8409.8409L12.21,7.62a.235.235,0,0,1-.42,0l-.6063-1.2127a1.8808,1.8808,0,0,0-.8409-.8409L9.13,4.96a.235.235,0,0,1,0-.42l1.2127-.6064a1.88,1.88,0,0,0,.8409-.8409L11.79,1.88a.235.235,0,0,1,.42,0l.6063,1.2126a1.88,1.88,0,0,0,.8409.8409L14.87,4.54A.235.235,0,0,1,14.87,4.96Zm-.37,6.29a1,1,0,0,0-1-1h-3a1,1,0,0,0-1,1v11h5Zm-12,8v3h5v-3a1,1,0,0,0-1-1h-3A1,1,0,0,0,2.5,19.25Zm19-4a1,1,0,0,0-1-1h-3a1,1,0,0,0-1,1v7h5Z"/><text x="0" y="39" fill="#000000" font-size="5px" font-weight="bold" font-family="'Helvetica Neue', Helvetica, Arial-Unicode, Arial, Sans-serif">Created by Royyan Wijaya</text><text x="0" y="44" fill="#000000" font-size="5px" font-weight="bold" font-family="'Helvetica Neue', Helvetica, Arial-Unicode, Arial, Sans-serif">from the Noun Project</text></svg>