<svg xmlns="http://www.w3.org/2000/svg" version="1.1" viewBox="-5.0 -10.0 110.0 135.0">
 <path d="m57.242 44.309c0.82812 0 1.5 0.67188 1.5 1.5s-0.67188 1.5-1.5 1.5h-31.523c-0.82812 0-1.5-0.67188-1.5-1.5s0.67188-1.5 1.5-1.5zm-18.227-33.578h21.969l0.79688-8.2305h-23.566zm23.324 3h-24.684c-0.76172-0.003907-1.418-0.58594-1.4883-1.3594l-0.53516-5.5078h-18.738v90.637h66.199v-90.637h-18.734l-0.52344 5.3906c-0.011719 0.82031-0.67969 1.4805-1.5 1.4805zm-5.0977 67.609c0.82812 0 1.5 0.67188 1.5 1.5s-0.67188 1.5-1.5 1.5h-31.523c-0.82812 0-1.5-0.67188-1.5-1.5s0.67188-1.5 1.5-1.5zm15.539-1.2617h-5.5195v5.5195h5.5195zm-7.0195-3h8.5195c0.82812 0 1.5 0.67188 1.5 1.5v8.5195c0 0.82812-0.67188 1.5-1.5 1.5h-8.5195c-0.82812 0-1.5-0.67188-1.5-1.5v-8.5195c0-0.82812 0.67188-1.5 1.5-1.5zm-8.5195-14.258c0.82812 0 1.5 0.67188 1.5 1.5 0 0.82813-0.67188 1.5-1.5 1.5h-31.523c-0.82812 0-1.5-0.67187-1.5-1.5 0-0.82812 0.67188-1.5 1.5-1.5zm15.539-1.2578h-5.5195v5.5195h5.5195zm-7.0195-3h8.5195c0.82812 0 1.5 0.67188 1.5 1.5v8.5195c0 0.82812-0.67188 1.5-1.5 1.5h-8.5195c-0.82812 0-1.5-0.67188-1.5-1.5v-8.5195c0-0.82812 0.67188-1.5 1.5-1.5zm-8.5195-32.773c0.82812 0 1.5 0.67188 1.5 1.5 0 0.82813-0.67188 1.5-1.5 1.5h-31.523c-0.82812 0-1.5-0.67187-1.5-1.5 0-0.82812 0.67188-1.5 1.5-1.5zm15.539-1.2578h-5.5195v5.5195h5.5195zm-7.0195-3h8.5195c0.82812 0 1.5 0.67188 1.5 1.5v8.5195c0 0.82812-0.67188 1.5-1.5 1.5h-8.5195c-0.82812 0-1.5-0.67188-1.5-1.5v-8.5195c0-0.82812 0.67188-1.5 1.5-1.5zm7.0195 21.516h-5.5195v5.5195h5.5195zm-7.0195-3h8.5195c0.82812 0 1.5 0.67188 1.5 1.5v8.5195c0 0.82812-0.67188 1.5-1.5 1.5h-8.5195c-0.82812 0-1.5-0.67188-1.5-1.5v-8.5195c0-0.82812 0.67188-1.5 1.5-1.5z"/>
<text x="0.0" y="117.5" font-size="5.0" font-weight="bold" font-family="Arbeit Regular, Helvetica, Arial-Unicode, Arial, Sans-serif" fill="#000000">Created by Rofidatul Hasanah</text><text x="0.0" y="122.5" font-size="5.0" font-weight="bold" font-family="Arbeit Regular, Helvetica, Arial-Unicode, Arial, Sans-serif" fill="#000000">from Noun Project</text></svg>