<svg xmlns="http://www.w3.org/2000/svg" version="1.1" viewBox="-5.0 -10.0 110.0 135.0">
 <path d="m72.059 49-21.148-19.262c-0.51562-0.46875-1.3047-0.46875-1.8203 0l-21.148 19.262c-0.41406 0.37891-0.55078 0.97266-0.34766 1.4922 0.20312 0.52344 0.70703 0.86719 1.2656 0.86719h4.6914v16.742c0 1.3828 1.1211 2.5078 2.5078 2.5078h6.7617c0.26563 0 0.51953-0.10547 0.70703-0.29297s0.29297-0.44141 0.29297-0.70703v-12c-0.003906-0.50781 0.19922-0.99219 0.55469-1.3516 0.35938-0.35937 0.84766-0.55859 1.3555-0.55859h8.5195c0.50781 0 0.99609 0.19922 1.3555 0.55859 0.35547 0.35938 0.55859 0.84375 0.55469 1.3516v12c0 0.26562 0.10547 0.51953 0.29297 0.70703s0.44141 0.29297 0.70703 0.29297h6.7617c1.3828 0 2.5078-1.125 2.5078-2.5078v-16.73h4.6914c0.56641 0.011718 1.082-0.33203 1.293-0.85938 0.21094-0.52734 0.066407-1.1328-0.35547-1.5117z"/>
<text x="0.0" y="117.5" font-size="5.0" font-weight="bold" font-family="Arbeit Regular, Helvetica, Arial-Unicode, Arial, Sans-serif" fill="#000000">Created by Andrianxia</text><text x="0.0" y="122.5" font-size="5.0" font-weight="bold" font-family="Arbeit Regular, Helvetica, Arial-Unicode, Arial, Sans-serif" fill="#000000">from Noun Project</text></svg>