<svg xmlns="http://www.w3.org/2000/svg" xmlns:xlink="http://www.w3.org/1999/xlink" viewBox="0 0 100 125" version="1.1" x="0px" y="0px"><title>Profile 3.3</title><desc>Created with Sketch.</desc><g stroke="none" stroke-width="1" fill="none" fill-rule="evenodd"><g fill-rule="nonzero" fill="#000000"><path d="M67.5,69 C67.5,70.3734557 66.3857926,71.5 65.0072136,71.5 L34.9927864,71.5 C33.6206182,71.5 32.5,70.3773915 32.5,69 C32.5,59.3350169 40.3350169,51.5 50,51.5 C59.6649831,51.5 67.5,59.3350169 67.5,69 Z M50,54.5 C42.159215,54.5 35.7719802,60.7233879 35.5084591,68.5 L64.4915409,68.5 C64.2280198,60.7233879 57.840785,54.5 50,54.5 Z M50,49.5 C44.2010101,49.5 39.5,44.7989899 39.5,39 C39.5,33.2010101 44.2010101,28.5 50,28.5 C55.7989899,28.5 60.5,33.2010101 60.5,39 C60.5,44.7989899 55.7989899,49.5 50,49.5 Z M50,46.5 C54.1421356,46.5 57.5,43.1421356 57.5,39 C57.5,34.8578644 54.1421356,31.5 50,31.5 C45.8578644,31.5 42.5,34.8578644 42.5,39 C42.5,43.1421356 45.8578644,46.5 50,46.5 Z"/></g></g><text x="0" y="115" fill="#000000" font-size="5px" font-weight="bold" font-family="'Helvetica Neue', Helvetica, Arial-Unicode, Arial, Sans-serif">Created by Landan Lloyd</text><text x="0" y="120" fill="#000000" font-size="5px" font-weight="bold" font-family="'Helvetica Neue', Helvetica, Arial-Unicode, Arial, Sans-serif">from the Noun Project</text></svg>